SubjData_BottomUpwalk_36
version=1
nRows=75
nColumns=19
inDegrees=no
endheader
time	l_ground_force_vx	l_ground_force_vy	l_ground_force_vz	l_ground_force_px	l_ground_force_py	l_ground_force_pz	ground_force_vx	ground_force_vy	ground_force_vz	ground_force_px	ground_force_py	ground_force_pz	l_ground_torque_x	l_ground_torque_y	l_ground_torque_z	ground_torque_x	ground_torque_y	ground_torque_z	
15.24	-16.5594005778982	504.015073661427	28.6813666613692	-0.0202971202897752	0	-0.0620609615070697	0	0	0	0	0	0	0	-0.990514014852265	0	0	0	0
15.25	-15.1833740589619	502.218773543131	29.073266061604	-0.0275031742700648	0	-0.0621497736489443	0	0	0	0	0	0	0	1.17501792862602	0	0	0	0
15.26	-13.8163667699645	501.081720419981	29.4506228275446	-0.034827953982765	0	-0.0620367188146732	0	0	0	0	0	0	0	3.11414465148593	0	0	0	0
15.27	-12.1065156779774	500.607351376119	29.5489862599102	-0.0425712208712913	0	-0.0617799524656594	0	0	0	0	0	0	0	5.32272459898837	0	0	0	0
15.28	-9.79582902400659	500.405089005008	29.4622352635994	-0.050682010676263	0	-0.061393574256703	0	0	0	0	0	0	0	8.18278435277261	0	0	0	0
15.29	-7.06823490541172	499.906646943067	29.3252351835649	-0.0588475539956428	0	-0.0608145277319758	0	0	0	0	0	0	0	11.3740829855568	0	0	0	0
15.3	-4.04552896842035	499.061985014706	29.1049719090606	-0.0669008266732789	0	-0.0601680819772618	0	0	0	0	0	0	0	14.8802154735666	0	0	0	0
15.31	-0.756668593118849	498.251890496306	28.7234734553805	-0.0748664710620497	0	-0.0594892229003269	0	0	0	0	0	0	0	18.9802737758686	0	0	0	0
15.32	2.63995731373333	498.163813683886	28.1617028948794	-0.0827891220553754	0	-0.0587865486988038	0	0	0	0	0	0	0	23.3084041575674	0	0	0	0
15.33	5.56768159798665	499.197020099785	27.5484859882433	-0.0903031333176992	0	-0.0579793751893913	0	0	0	0	0	0	0	26.923234475332	0	0	0	0
15.34	7.78154637775238	501.541391957357	26.879999782433	-0.0972053188570027	0	-0.0571108826461665	0	0	0	0	0	0	0	29.5946637773346	0	0	0	0
15.35	9.66808818429608	505.089336855654	26.2671543563375	-0.103531290608519	0	-0.0562447698642609	0	0	0	0	0	0	0	32.0620488214087	0	0	0	0
15.36	11.8131802567668	509.634418910465	25.9428554930222	-0.109472557198173	0	-0.0554216679103891	0	0	0	0	0	0	0	35.0018975403305	0	0	0	0
15.37	14.5119985915543	514.899265817372	25.84451270507	-0.115363640438208	0	-0.0545642412472815	0	0	0	0	0	0	0	38.632475593718	0	0	0	0
15.38	17.7412228407967	520.818410652239	25.875179695081	-0.121500600080214	0	-0.053645421876443	0	0	0	0	0	0	0	43.020330191921	0	0	0	0
15.39	21.4193358838062	527.652798086308	26.0362501688179	-0.128130444318603	0	-0.0527302403490353	0	0	0	0	0	0	0	48.0698192822504	0	0	0	0
15.4	25.5353214069206	535.714891853488	26.2407812695447	-0.135383978751688	0	-0.0518839070461077	0	0	0	0	0	0	0	53.7413610691749	0	0	0	0
15.41	29.8634845083154	545.112915898384	26.3784869653887	-0.143066713279735	0	-0.0510890233385876	0	0	0	0	0	0	0	59.7766793402657	0	0	0	0
15.42	34.1166632960996	555.690866539724	26.2003591114405	-0.150946973443943	0	-0.050319862075402	0	0	0	0	0	0	0	65.864680956104	0	0	0	0
15.43	37.9958379047321	566.916019581571	25.6692426710215	-0.158785446079628	0	-0.0495210818891862	0	0	0	0	0	0	0	71.6919296192061	0	0	0	0
15.44	41.5254610534744	577.929429210302	24.9678889263912	-0.166530577714624	0	-0.0486565698913217	0	0	0	0	0	0	0	77.1515964700711	0	0	0	0
15.45	44.9259492151857	587.657962781091	24.3604853639805	-0.174413323265472	0	-0.0476704836503863	0	0	0	0	0	0	0	82.4683552141244	0	0	0	0
15.46	48.5473247843356	595.322605631609	23.9487427066968	-0.182684428892792	0	-0.0466096838209844	0	0	0	0	0	0	0	88.0093787655725	0	0	0	0
15.47	52.9126232525028	600.487822472955	23.7081653140586	-0.191593788409844	0	-0.045577483636103	0	0	0	0	0	0	0	94.3885409773817	0	0	0	0
15.48	58.2316819233714	602.848096226524	23.5242652885971	-0.201056358972173	0	-0.0446228059424435	0	0	0	0	0	0	0	101.895837775926	0	0	0	0
15.49	64.2463353880635	602.069407575719	23.1104327528019	-0.210723446947887	0	-0.0437176778312255	10.5838102234952	39.7301264095009	-0.0253375115984956	0.169336629586913	0	0.0672849465286908	0	110.058943543798	0	0	0.545121932529309	0
15.5	70.3867034263886	597.497858527211	22.2525901429476	-0.220136121001741	0	-0.0427639673398976	15.8841024244545	69.7678674428748	0.813076188629117	0.144246428476551	0	0.0673505784938256	0	118.006055253283	0	0	1.21162135453215	0
15.51	75.9827995366441	588.173226267103	20.7288297892247	-0.228859633555028	0	-0.0417050112920451	16.4435356452121	102.021898166947	2.78642088417383	0.128225906623156	0	0.066954451145459	0	124.871333186553	0	0	1.35048951539047	0
15.52	80.6959277186801	573.059882646026	18.4532716293862	-0.236936382038676	0	-0.040629268566398	12.5434025995651	134.86536270575	5.96593302914339	0.117347324122145	0	0.066320790475814	0	130.196362678871	0	0	0.988381346719898	0
15.53	84.4616775605253	551.076453972747	15.3364586712308	-0.244820223585148	0	-0.039588209108652	5.79270881570368	168.231313103306	9.92900635702469	0.110672381943064	0	0.065796543877513	0	133.832572956774	0	0	0.335794603472839	0
15.54	87.0305975384781	521.357079855328	11.5956033107147	-0.252802031750738	0	-0.0385656714536137	-2.53317597995511	202.630467362369	13.7555590513286	0.107392033079534	0	0.0657759011571576	0	135.336765410196	0	0	-0.531969958599781	0
15.55	87.9736420310422	483.671379416135	7.63122154463439	-0.260854093193784	0	-0.0375926662632296	-10.8950637231468	239.377374956121	16.4623920500702	0.106043715571411	0	0.0666102799854245	0	134.099926120116	0	0	-1.23703447547575	0
15.56	86.72046778909	438.505662818339	3.4878755958376	-0.268865117679833	0	-0.0366547314662213	-18.9487699094448	278.990880835531	16.4542309532041	0.105222308237525	0	0.0681719043187345	0	129.546225713343	0	0	-1.37024880605234	0
15.57	82.7339404415946	387.151243785984	-0.64960300652818	-0.276585208612423	0	-0.035690081652172	-26.9604108603843	320.621003950104	13.1069551896396	0.104227488864273	0	0.0701286032471253	0	121.132321530176	0	0	-0.801574479969848	0
15.58	75.7054445379944	331.528371622079	-4.21412574540031	-0.283467646242808	0	-0.0346652675785432	-34.908609884856	361.081528059119	7.58524692360929	0.102904463821236	0	0.0719985665915067	0	108.846374018578	0	0	0.106597101568936	0
15.59	65.7219872474323	274.138933159038	-6.50499694767172	-0.288560530204959	0	-0.0335034665135245	-41.6792793535201	395.882133157006	2.16919021769102	0.10104394519122	0	0.0735859852773857	0	93.1737118529981	0	0	0.612414468219796	0
15.6	53.8241845489446	218.053580211486	-6.94578042310392	-0.290963049742021	0	-0.0321871074273252	-45.8612829705385	422.159926693269	-2.23433570659497	0.0983112914614259	0	0.0749278779876505	0	75.4911359200802	0	0	0.499013541407458	0
15.61	42.0548410948895	166.236927801812	-5.57780209228773	-0.290954384538671	0	-0.0307981892953875	-47.3491607259186	440.59443984367	-6.53971792013161	0.0945909336557893	0	0.0761152746160076	0	58.4580529912873	0	0	0.401470968644686	0
15.62	32.0128997107791	120.941033052867	-3.07197994289489	-0.289378751524605	0	-0.0297589136098164	-47.2898449993968	454.699132169616	-11.4227842537091	0.0899027067698222	0	0.0772129274288259	0	44.1423350354585	0	0	0.723102699624797	0
15.63	23.8551376675878	83.3899633378274	-0.319826017702654	-0.28642307065295	0	-0.0296033275462959	-47.095572907206	468.452581467519	-16.6943552035779	0.0842840628987882	0	0.0783031827513257	0	32.65298107676	0	0	1.28907106804506	0
15.64	16.9052817103917	54.0650813352194	1.89391599320966	-0.281014985347503	0	-0.0302297575199608	-47.6112249447439	483.969638874124	-21.7294143884236	0.0781085584610253	0	0.0793970346676258	0	23.0172010949658	0	0	1.62180468515822	0
15.65	10.8369113926963	32.479770954612	3.33248196253881	-0.270563322717672	0	-0.030029198947066	-48.8844270052992	501.033706590365	-26.010669159003	0.0716851971098253	0	0.0804270404892142	0	14.7700315737826	0	0	1.54904575678884	0
15.66	0	0	0	0	0	0	-50.3784979444779	518.24571293204	-29.3728368640057	0.0650887564586108	0	0.0812287921633156	0	0	0	0	1.36513110426904	0
15.67	0	0	0	0	0	0	-51.3629743990892	534.243559242402	-31.8375173717166	0.0583120102909316	0	0.0818317848407458	0	0	0	0	1.34919971730621	0
15.68	0	0	0	0	0	0	-51.5608954154648	547.886659472087	-33.6054531078265	0.0514379563597833	0	0.0823703442221272	0	0	0	0	1.59993623072635	0
15.69	0	0	0	0	0	0	-51.0123860251618	558.414270157257	-34.8438820862836	0.0446033933102097	0	0.0830458466192748	0	0	0	0	1.94843171123089	0
15.7	0	0	0	0	0	0	-49.6830670119596	565.40634675775	-35.6000184910728	0.0380016993980512	0	0.0838776050560879	0	0	0	0	2.38189478146519	0
15.71	0	0	0	0	0	0	-47.9583010423566	568.861350028299	-36.0299331305471	0.0317340727190215	0	0.0847842096143409	0	0	0	0	2.77803355490072	0
15.72	0	0	0	0	0	0	-46.2993671320094	568.983323344807	-36.3186680743006	0.0255549571684543	0	0.0856856154536524	0	0	0	0	2.96961542031507	0
15.73	0	0	0	0	0	0	-44.705984748749	566.238007613166	-36.3965467760954	0.0192465933590693	0	0.0866613654994735	0	0	0	0	2.89462680661958	0
15.74	0	0	0	0	0	0	-43.0299323891862	561.138343779529	-36.157943502585	0.0127670707560508	0	0.087722925714238	0	0	0	0	2.60009626872108	0
15.75	0	0	0	0	0	0	-40.9220859667123	554.313593013243	-35.5373467732797	0.00597717579716409	0	0.0887674302066289	0	0	0	0	2.30270061023182	0
15.76	0	0	0	0	0	0	-38.0951919947037	546.550620261689	-34.6207422011032	-0.000953137141177375	0	0.0897520126674808	0	0	0	0	2.20785450799765	0
15.77	0	0	0	0	0	0	-34.3549451163383	538.673199924895	-33.7571289767493	-0.0077700471803215	0	0.0907260213975726	0	0	0	0	2.52190944290699	0
15.78	0	0	0	0	0	0	-29.9115093023704	531.183597006282	-33.2026346234027	-0.0143481121907267	0	0.0916576712733639	0	0	0	0	3.24196534639249	0
15.79	0	0	0	0	0	0	-25.1485139829732	524.297443563432	-32.8495945505531	-0.02074271548858	0	0.0925705205408182	0	0	0	0	4.03406951652773	0
15.8	0	0	0	0	0	0	-20.5948600286253	517.962638057627	-32.6574563286346	-0.0269547819392364	0	0.0933871053063654	0	0	0	0	4.77539549998862	0
15.81	0	0	0	0	0	0	-16.480112963899	512.302191315812	-32.5982217725189	-0.0330706601902339	0	0.0941407122224247	0	0	0	0	5.48512602062229	0
15.82	0	0	0	0	0	0	-12.6296931744363	507.45457552787	-32.4382708010144	-0.0393034187670161	0	0.0948102462493795	0	0	0	0	6.07601130675217	0
15.83	0	0	0	0	0	0	-9.00255147224699	503.590455192741	-32.0564069284378	-0.0457027301038951	0	0.095390457106968	0	0	0	0	6.47273282468184	0
15.84	0	0	0	0	0	0	-5.90598795693382	500.73557331927	-31.5879701786676	-0.0520217041728164	0	0.0958470277449373	0	0	0	0	6.57582859346094	0
15.85	0	0	0	0	0	0	-3.4655752981656	498.939540638449	-31.0494928870609	-0.0582281297718661	0	0.0961985251575803	0	0	0	0	6.50559207722756	0
15.86	0	0	0	0	0	0	-1.7219009556859	498.010580915582	-30.3480832483484	-0.0642686147386971	0	0.0963896241558259	0	0	0	0	6.275591038285	0
15.87	0	0	0	0	0	0	-0.577033894130992	497.743604935351	-29.6146405095556	-0.0702152678237688	0	0.0964013384197431	0	0	0	0	5.96619627511082	0
15.88	0	0	0	0	0	0	0.279817558120427	497.739285007216	-28.9864533789245	-0.0764792643219069	0	0.0961504195370846	0	0	0	0	5.75447903305918	0
15.89	0	0	0	0	0	0	1.01789344737388	497.825762025289	-28.5374603021361	-0.0830816664155154	0	0.0956296017163798	0	0	0	0	5.70547229359167	0
15.9	0	0	0	0	0	0	1.81886777191786	498.125747747525	-28.3396412223319	-0.089753556801864	0	0.0949378146388829	0	0	0	0	5.82062166853502	0
15.91	0	0	0	0	0	0	3.18044012627304	498.670075375083	-28.4006159772075	-0.0963726660282737	0	0.0942290834509269	0	0	0	0	6.1710680028524	0
15.92	0	0	0	0	0	0	5.59096935490028	499.35588234578	-28.5568103008607	-0.103236560316939	0	0.0934882341815944	0	0	0	0	6.76832612895368	0
15.93	0	0	0	0	0	0	9.14333742172587	500.349622394632	-28.6744758266913	-0.110653449775739	0	0.0926851905626844	0	0	0	0	7.51550960037481	0
15.94	0	0	0	0	0	0	13.4286464886892	501.962367366878	-28.9582372257433	-0.118748787366575	0	0.0916898626579502	0	0	0	0	8.20281056904705	0
15.95	0	0	0	0	0	0	18.1371495941506	504.79459889356	-29.2817884118967	-0.127432436937311	0	0.0905153427996067	0	0	0	0	8.68798792495553	0
15.96	0	0	0	0	0	0	22.9494804897609	509.540475025748	-29.4327056129192	-0.136265860780904	0	0.08920392359083	0	0	0	0	8.97909829647749	0
15.97	0	0	0	0	0	0	27.4472615365064	516.656776000055	-29.451667499736	-0.144706900467878	0	0.087734290403298	0	0	0	0	9.19696316115888	0
15.98	0	0	0	0	0	0	31.3907522566584	526.338245975949	-29.5096442198126	-0.152525328949541	0	0.0861360022063158	0	0	0	0	9.53713496592976	0
